<svg width="32" height="32" viewBox="0 0 32 32" fill="none" xmlns="http://www.w3.org/2000/svg">
<path d="M8.91912 13.817C8.91912 14.2033 8.96123 14.5165 9.03491 14.7462C9.11912 14.9758 9.22438 15.2264 9.37175 15.4978C9.42438 15.5813 9.44544 15.6648 9.44544 15.7379C9.44544 15.8423 9.38228 15.9467 9.24544 16.0511L8.58228 16.4896C8.48754 16.5522 8.3928 16.5835 8.30859 16.5835C8.20333 16.5835 8.09807 16.5313 7.9928 16.4374C7.84544 16.2808 7.71912 16.1137 7.61386 15.9467C7.50859 15.7692 7.40333 15.5709 7.28754 15.3308C6.46649 16.2912 5.43491 16.7714 4.1928 16.7714C3.30859 16.7714 2.60333 16.5209 2.08754 16.0198C1.57175 15.5187 1.30859 14.8506 1.30859 14.0154C1.30859 13.128 1.62438 12.4077 2.26649 11.8648C2.90859 11.322 3.76122 11.0505 4.84544 11.0505C5.20333 11.0505 5.57175 11.0819 5.96122 11.1341C6.3507 11.1863 6.7507 11.2698 7.17175 11.3637V10.6016C7.17175 9.80824 7.00333 9.25495 6.67701 8.93132C6.34017 8.60769 5.77175 8.4511 4.96122 8.4511C4.5928 8.4511 4.21386 8.49286 3.82438 8.58681C3.43491 8.68077 3.05596 8.7956 2.68754 8.94176C2.51912 9.01484 2.3928 9.05659 2.31912 9.07747C2.24544 9.09835 2.1928 9.10879 2.1507 9.10879C2.00333 9.10879 1.92965 9.0044 1.92965 8.78516V8.27363C1.92965 8.10659 1.9507 7.98132 2.00333 7.90824C2.05596 7.83516 2.1507 7.76209 2.29807 7.68901C2.66649 7.5011 3.10859 7.34451 3.62438 7.21923C4.14017 7.08352 4.68754 7.02088 5.26649 7.02088C6.51912 7.02088 7.43491 7.30275 8.02438 7.86648C8.60333 8.43022 8.89807 9.28626 8.89807 10.4346V13.817H8.91912ZM4.64544 15.4038C4.9928 15.4038 5.3507 15.3412 5.72965 15.2159C6.10859 15.0907 6.44544 14.861 6.72965 14.5478C6.89807 14.3495 7.02438 14.1302 7.08754 13.8797C7.1507 13.6291 7.1928 13.3264 7.1928 12.9714V12.533C6.88754 12.4599 6.56122 12.3973 6.22438 12.3555C5.88754 12.3137 5.56123 12.2929 5.23491 12.2929C4.52965 12.2929 4.01386 12.4286 3.66649 12.7104C3.31912 12.9923 3.1507 13.389 3.1507 13.911C3.1507 14.4016 3.27701 14.767 3.54017 15.0176C3.7928 15.2786 4.16123 15.4038 4.64544 15.4038ZM13.0981 16.5313C12.9086 16.5313 12.7823 16.5 12.6981 16.4269C12.6139 16.3643 12.5402 16.2181 12.477 16.0198L10.0033 7.95C9.94017 7.74121 9.90859 7.60549 9.90859 7.53242C9.90859 7.36538 9.9928 7.27143 10.1612 7.27143H11.1928C11.3928 7.27143 11.5296 7.30275 11.6033 7.37582C11.6875 7.43846 11.7507 7.58462 11.8139 7.78297L13.5823 14.694L15.2244 7.78297C15.277 7.57418 15.3402 7.43846 15.4244 7.37582C15.5086 7.31319 15.656 7.27143 15.8454 7.27143H16.6875C16.8875 7.27143 17.0244 7.30275 17.1086 7.37582C17.1928 7.43846 17.2665 7.58462 17.3086 7.78297L18.9717 14.7775L20.7928 7.78297C20.856 7.57418 20.9296 7.43846 21.0033 7.37582C21.0875 7.31319 21.2244 7.27143 21.4139 7.27143H22.3928C22.5612 7.27143 22.656 7.35495 22.656 7.53242C22.656 7.58462 22.6454 7.63681 22.6349 7.69945C22.6244 7.76209 22.6033 7.8456 22.5612 7.96044L20.0244 16.0302C19.9612 16.239 19.8875 16.3747 19.8033 16.4374C19.7191 16.5 19.5823 16.5418 19.4033 16.5418H18.4981C18.2981 16.5418 18.1612 16.5104 18.077 16.4374C17.9928 16.3643 17.9191 16.2286 17.877 16.0198L16.2454 9.28626L14.6244 16.0093C14.5718 16.2181 14.5086 16.3538 14.4244 16.4269C14.3402 16.5 14.1928 16.5313 14.0033 16.5313H13.0981ZM26.6244 16.8132C26.077 16.8132 25.5296 16.7506 25.0033 16.6253C24.477 16.5 24.0665 16.3643 23.7928 16.2077C23.6244 16.1137 23.5086 16.0093 23.4665 15.9154C23.4244 15.8214 23.4033 15.717 23.4033 15.6231V15.0907C23.4033 14.8714 23.4875 14.767 23.6454 14.767C23.7086 14.767 23.7718 14.7775 23.8349 14.7984C23.8981 14.8192 23.9928 14.861 24.0981 14.9027C24.456 15.0593 24.8454 15.1846 25.256 15.2681C25.677 15.3516 26.0875 15.3934 26.5086 15.3934C27.1717 15.3934 27.6875 15.2786 28.0454 15.0489C28.4033 14.8192 28.5928 14.4852 28.5928 14.0571C28.5928 13.7648 28.4981 13.5247 28.3086 13.3264C28.1191 13.128 27.7612 12.9505 27.2454 12.7835L25.7191 12.3137C24.9507 12.0736 24.3823 11.7187 24.0349 11.2489C23.6875 10.7896 23.5086 10.278 23.5086 9.73516C23.5086 9.2967 23.6033 8.91044 23.7928 8.57637C23.9823 8.24231 24.2349 7.95 24.5507 7.72033C24.8665 7.48022 25.2244 7.30275 25.6454 7.17747C26.0665 7.0522 26.5086 7 26.9717 7C27.2033 7 27.4454 7.01044 27.677 7.04176C27.9191 7.07308 28.1402 7.11484 28.3612 7.15659C28.5717 7.20879 28.7717 7.26099 28.9612 7.32363C29.1507 7.38626 29.2981 7.4489 29.4033 7.51154C29.5507 7.59505 29.656 7.67857 29.7191 7.77253C29.7823 7.85604 29.8139 7.97088 29.8139 8.11703V8.60769C29.8139 8.82692 29.7296 8.94176 29.5717 8.94176C29.4875 8.94176 29.3507 8.9 29.1717 8.81648C28.5717 8.54505 27.8981 8.40934 27.1507 8.40934C26.5507 8.40934 26.077 8.5033 25.7507 8.70165C25.4244 8.9 25.256 9.20275 25.256 9.63077C25.256 9.92308 25.3612 10.1736 25.5718 10.372C25.7823 10.5703 26.1718 10.7687 26.7296 10.9462L28.2244 11.4159C28.9823 11.656 29.5296 11.9901 29.856 12.4181C30.1823 12.8462 30.3402 13.3368 30.3402 13.8797C30.3402 14.3286 30.2454 14.7357 30.0665 15.0907C29.877 15.4456 29.6244 15.7588 29.2981 16.0093C28.9717 16.2703 28.5823 16.4582 28.1296 16.594C27.656 16.7401 27.1612 16.8132 26.6244 16.8132Z" fill="#252F3E"/>
<path fill-rule="evenodd" clip-rule="evenodd" d="M28.6139 21.8869C25.1507 24.4237 20.1192 25.7704 15.7928 25.7704C9.72969 25.7704 4.26653 23.5468 0.140212 19.8512C-0.186103 19.5589 0.108633 19.1622 0.498107 19.3918C4.96127 21.96 10.4665 23.5155 16.1613 23.5155C20.0034 23.5155 24.2244 22.7221 28.1086 21.0935C28.6876 20.8325 29.1823 21.4693 28.6139 21.8869Z" fill="#FF9900"/>
<path fill-rule="evenodd" clip-rule="evenodd" d="M30.055 20.2585C29.6129 19.6947 27.1287 19.987 26.0024 20.1227C25.6656 20.1645 25.6129 19.8722 25.9182 19.653C27.8972 18.2749 31.1498 18.6716 31.5287 19.131C31.9077 19.6008 31.4235 22.8266 29.5708 24.3716C29.2866 24.6117 29.0129 24.4865 29.1393 24.1733C29.5603 23.1398 30.4972 20.8117 30.055 20.2585Z" fill="#FF9900"/>
</svg>
