<svg width="32" height="32" viewBox="0 0 32 32" fill="none" xmlns="http://www.w3.org/2000/svg">
<path d="M18.1788 6.23823C18.0085 6.39755 17.7754 6.80957 17.7754 7.38717C17.7754 7.52579 17.7754 10.8364 17.7754 10.9548C17.7754 11.2508 17.6639 11.5329 17.4846 11.6927C17.3902 11.7779 16.7982 12.3054 16.7617 12.3333H17.1033C17.2067 12.2366 18.2836 11.3045 18.3956 11.1779C18.5417 11.0138 18.8909 10.5996 18.8909 9.94857C18.8909 9.79575 18.8933 6.65843 18.8933 6.52029C18.8933 6.00598 19.1356 5.72079 19.2626 5.58289C19.3915 5.44186 19.7999 5.09506 19.9046 5.00337L19.5672 5C19.4699 5.08857 18.2957 6.12969 18.1788 6.23823Z" fill="#E23546"/>
<path d="M15.7148 19.5655L17.042 20.7144H17.9318C18.8352 20.7144 19.6603 20.3307 20.2062 19.7903C20.7516 19.2499 20.9529 18.5248 20.9529 17.8456C20.9529 17.3516 20.9529 16.0521 20.9529 15.9619C20.9529 15.3289 20.5523 14.9603 20.4401 14.8501C20.3794 14.7904 19.9924 14.4287 19.9924 14.4287V15.8746C19.9924 15.8746 20.4184 16.3097 20.502 16.3977C20.8969 16.8129 20.8925 17.5677 19.6458 18.7716C19.4267 18.9825 18.8038 19.5655 17.9466 19.5655C17.8245 19.5655 15.7148 19.5655 15.7148 19.5655Z" fill="#E23546"/>
<path d="M20.2645 13.4363C20.2645 13.4363 20.6277 13.8662 20.7707 13.9813C21.2496 14.37 21.4596 13.9258 21.1515 13.4182C21.0786 13.2964 20.7808 13.0926 20.2645 13.4363ZM18.6354 12.3921C18.4938 12.5456 18.3597 12.9216 18.3597 13.253C18.3597 13.4373 18.3597 13.961 18.3597 13.961C18.3597 13.961 18.9179 13.961 19.0546 13.961C19.3258 13.961 19.5706 13.7534 19.7607 13.5723C19.7656 13.5631 19.7607 12.87 19.7607 12.87C19.7607 12.87 19.939 13.0812 20.0975 13.2511C20.3308 13.0315 20.9323 12.3832 21.3695 12.3832C22.2558 12.3832 22.0549 13.5277 21.6922 13.8958C21.5753 14.0148 21.0525 14.5089 20.8906 14.6675C20.4729 15.0784 19.7562 14.882 19.7562 13.8216C19.7562 13.8216 18.9882 14.5734 18.8718 14.6725C18.7547 14.7727 18.3597 15.2049 18.3597 15.2049C18.3597 15.2049 18.3597 16.8897 18.3597 17.0691C18.3597 17.9635 18.0965 18.2857 17.8371 18.5327C17.7221 18.6421 16.7894 19.5144 16.6213 19.6669H16.2906C16.2906 19.6669 16.8913 19.1264 17.0049 19.004C17.1354 18.8658 17.2867 18.5817 17.2867 18.1096C17.2867 17.9904 17.2726 15.1805 17.2726 15.1805C17.2726 15.1805 13.0237 15.1805 12.8301 15.1805C11.2848 15.1805 10.9548 13.4133 10.9451 12.9408C10.9425 12.8011 10.9451 11.3899 10.9451 11.1702C10.9451 10.8791 10.7649 10.3898 10.4766 10.2383H10.9119C10.9625 10.2606 11.2363 10.3748 11.2363 11.458C11.2363 11.458 11.218 12.7189 11.218 12.7863C11.218 13.3357 11.6416 13.9661 12.2543 13.9661C12.3794 13.9661 17.282 13.961 17.282 13.961C17.2867 13.8216 17.4229 13.2923 17.6644 13.0138C17.8004 12.8557 18.8796 11.8386 19.0023 11.7407L19.3215 11.7373C19.2752 11.7826 18.7514 12.2649 18.6354 12.3921Z" fill="#E23546"/>
<path d="M14.6668 16.5835C14.6668 16.84 14.1748 17.5239 14.1459 17.5718C14.1104 17.2949 13.9861 16.989 13.6191 16.3761L14.1579 15.4766C14.5189 16.079 14.6668 16.2076 14.6668 16.5835Z" fill="#E23546"/>
<path d="M13.2015 11.6258C12.9545 11.9066 12.9109 11.9771 12.6792 12.1274C12.7005 12.1274 15.4188 12.1274 15.5075 12.1274C16.2746 12.1274 16.1213 11.6128 15.983 11.3527C15.7026 10.8196 14.8125 9.83 14.8125 9.83C14.8125 9.83 13.2536 11.567 13.2015 11.6258ZM16.3508 6.16403C16.5327 6.36124 16.923 6.89267 16.6887 7.14658C16.4816 7.37065 16.1614 7.7271 16.1614 7.7271C16.1461 7.59824 15.8452 7.28981 15.8452 7.28981C15.8452 7.28981 15.8479 8.23519 15.8452 8.35238C15.8357 8.77882 15.6861 8.90062 15.6861 8.90062C15.6861 8.90062 16.4147 9.6827 16.4147 10.6883C16.4147 11.1763 16.4159 11.6239 16.4159 11.7205C16.4159 11.9272 16.3681 12.0862 16.2353 12.2443C16.1696 12.323 15.4952 13.0581 15.3922 13.1585C15.1971 13.3489 14.9919 13.381 14.8373 13.381C14.7288 13.381 12.3983 13.381 12.3267 13.381C11.9313 13.381 11.5234 13.047 11.5234 12.7117C11.5234 12.6287 11.5289 11.7045 11.5289 11.7045C11.6572 11.8651 11.7885 12.0542 12.1047 12.0495C12.352 12.0444 12.611 11.835 12.6817 11.7596C12.7526 11.6817 14.5807 9.61325 14.5807 9.61325C14.5807 9.61325 13.7252 8.75441 13.1604 8.34533C12.8849 8.14676 12.5206 8.39823 12.466 8.66136C12.2921 9.48304 12.466 10.7184 12.466 10.7184C12.466 10.7184 11.9073 10.1138 11.7727 9.96916C11.4926 9.66588 11.5036 8.98038 11.8361 8.62067C11.888 8.56289 12.3948 7.94412 13.0389 7.94412C13.1414 7.94412 13.9278 7.94412 14.0413 7.94412C14.7133 7.94412 15.4386 8.65729 15.4386 8.65729C15.4386 8.65729 15.5461 8.52844 15.5461 8.40555C15.5461 8.03255 15.5435 7.03752 15.5435 7.03752C15.038 6.48928 14.9698 5.92477 15.2123 5.66163C15.6638 5.17144 15.8299 5 15.8299 5C15.8299 5 15.8244 5.59327 16.3508 6.16403Z" fill="#E23546"/>
<path d="M9.92746 13.3809H9.42969C9.42969 13.3809 9.96534 13.6655 9.96534 14.3978C9.96534 14.591 9.96534 16.5773 9.96534 16.737C9.96534 18.2586 11.2642 19.6666 12.8424 19.6666C13.1078 19.6666 13.9835 19.6666 14.16 19.6666C14.9511 19.6666 15.2289 19.4814 15.7078 19.0706C15.8825 18.92 16.1102 18.673 16.1949 18.5826C16.4699 18.2845 16.763 18.0441 16.763 17.2593C16.763 17.0676 16.763 16.5999 16.763 16.4929C16.763 15.8315 16.366 15.5563 16.1761 15.3716C16.0533 15.2524 15.7154 14.9413 15.7154 14.9413V16.5093C15.7154 16.5093 16.0471 16.8511 16.1946 16.9632C16.8783 17.4852 16.3354 18.3962 15.6979 18.3962C15.5714 18.3962 12.9807 18.3972 12.8039 18.3972C11.6902 18.3972 10.2976 17.5042 10.2976 15.9582C10.2976 15.7508 10.2976 14.8224 10.2976 14.6868C10.2982 13.3809 9.92746 13.3809 9.92746 13.3809Z" fill="#E23546"/>
<path d="M13.6187 16.5842C13.6187 16.8407 12.6345 17.524 12.5769 17.5718C12.5064 17.2949 12.2575 16.9887 11.5234 16.3759L12.6011 15.4766C13.3226 16.0796 13.6187 16.2085 13.6187 16.5842Z" fill="#E23546"/>
<path d="M4.02977 26.3149C3.8733 26.3149 2.66789 26.3133 2.50163 26.3133C2.02349 26.3133 2.06082 25.9252 2.01899 25.6012V23.4788C2.01899 23.4788 2.35416 23.4709 2.72217 23.4709C3.14683 23.4709 3.67712 23.4106 4.19153 23.6921C4.19153 23.6921 3.82088 22.835 2.71926 22.835H2.01899C2.01899 22.835 2.01899 22.7131 2.01899 22.4175V22.1544C2.01899 22.1544 2.01899 21.5602 1.86782 21.3909C1.86782 21.3909 2.80424 21.394 2.87043 21.3945C3.74649 21.3955 4.42531 21.382 5.13114 21.8289C5.13114 21.8289 4.99585 20.7139 3.2988 20.7139C2.33563 20.7139 0.137935 20.7139 0 20.7139C0 20.7139 0.589071 21.1887 0.554123 22.1516L0.589071 26.0078C0.589071 26.9835 0.981961 26.9996 0.981961 26.9996C1.02167 26.9996 1.22235 26.9996 2.11165 26.9996C2.25991 26.9996 2.43677 26.9996 2.62474 26.9996C3.09997 26.9996 3.72451 26.9996 4.23125 26.9996C4.97043 26.9996 5.22724 26.4992 5.22724 26.219L5.23809 25.847C5.23809 25.847 5.00353 26.3149 4.02977 26.3149Z" fill="#E23546"/>
<path d="M12.075 25.9525V23.1483C12.075 22.061 11.2352 21.7708 10.6156 21.7708C9.79625 21.7708 9.54769 22.506 9.44362 22.753C9.25795 22.0727 8.61384 21.7617 8.08552 21.7617C7.09826 21.7617 6.84495 22.7695 6.84495 22.7695C6.84495 22.7695 6.82099 21.7981 6.01966 21.7981L5.23828 21.7997C5.23828 21.7997 5.68749 21.9986 5.68749 22.8386L5.68674 25.9522C5.68674 26.99 6.0783 26.9998 6.0783 26.9998H7.37502C7.34083 26.99 6.8764 26.6152 6.8764 25.9442V23.1831C6.89262 23.0589 7.08827 22.6472 7.64754 22.6472C7.95425 22.6472 8.29814 22.992 8.29265 23.3864L8.29065 25.9511C8.29065 26.9969 8.67697 26.9993 8.67697 26.9993H9.97818C9.97818 26.9993 9.48006 26.6285 9.48006 25.9416L9.47607 23.1799C9.52423 23.0252 9.69643 22.6544 10.1883 22.6544C10.5721 22.6544 10.8941 22.9997 10.8848 23.3947C10.8848 23.3947 10.8821 25.7369 10.8831 25.9543C10.8896 27.0046 11.2699 26.9964 11.2699 26.9964C11.948 26.9964 12.5716 26.999 12.5716 26.999C12.5716 26.999 12.075 26.6354 12.075 25.9525Z" fill="#E23546"/>
<path d="M14.1764 25.944C14.1764 26.6398 14.6675 26.9998 14.6675 26.9998C14.6675 26.9998 14.0595 26.9971 13.3919 26.9971C13.3919 26.9971 13.012 27.002 13.012 25.9528V25.948L13.0138 22.8021C13.0138 21.9745 12.5723 21.7617 12.5723 21.7617H13.3332C13.6048 21.7617 14.1727 21.7617 14.1727 22.9327L14.1708 25.9389L14.1764 25.944Z" fill="#E23546"/>
<path d="M17.8086 22.1642C17.8086 22.1642 17.6893 21.7866 17.1765 21.7866C16.4004 21.7866 16.2112 22.8167 16.2112 22.8167C16.1467 22.004 15.9526 21.7617 15.4153 21.7617L14.666 21.7628C14.666 21.7628 15.1014 21.9644 15.1014 22.8074L15.0992 25.9453C15.0992 26.9899 15.4715 26.9998 15.4715 26.9998H16.6971C16.6657 26.9899 16.2239 26.6123 16.2239 25.9357L16.2258 23.3706C16.2555 23.1355 16.3632 22.9574 16.5287 22.8368C16.9343 22.5474 17.4912 22.6186 17.8089 23.0472C17.8089 23.0472 17.8086 22.4979 17.8086 22.1642Z" fill="#E23546"/>
<path d="M24.359 22.4586C24.8062 22.4586 25.1398 22.6588 25.1398 22.6588L25.1429 21.8845H24.0409V20.7139C24.0409 20.7139 23.7555 21.234 23.1588 21.7308C22.7853 22.0483 22 22.4383 22 22.4383L22.8369 22.4542L22.8351 26.0109C22.8351 26.997 23.237 26.997 23.237 26.997C23.9586 26.997 24.5416 26.9996 24.5416 26.9996C24.5416 26.9996 24.0391 26.6478 24.0391 26.0017L24.0409 22.4571C24.3811 22.4581 24.1432 22.4586 24.359 22.4586Z" fill="#E23546"/>
<path d="M27.1949 23.6122C27.385 23.1892 27.5342 22.1206 26.8853 22.1791C26.1416 22.2462 26.2844 24.6469 26.2844 24.6469C26.531 24.3181 26.9049 24.2516 27.1949 23.6122ZM27.8989 23.9457C27.2556 24.7486 26.7508 24.6227 26.3588 25.2154C26.3588 25.2154 26.4219 26.0161 26.9226 26.2991C27.0967 26.3957 27.8039 26.6686 28.2609 25.7059L28.2598 26.6205C28.2598 26.6205 27.9653 26.9998 27.0307 26.9998C25.916 26.9998 25.1445 25.9384 25.1445 24.4993C25.1445 23.0836 25.7738 21.7679 26.9497 21.7618C28.113 21.7527 28.7434 22.8796 27.8989 23.9457Z" fill="#E23546"/>
<path d="M13.6077 21.7615C14.1923 21.7615 14.6675 21.5315 14.6675 21.2407C14.6675 20.9499 14.1923 20.7139 13.6077 20.7139C13.023 20.7139 12.5723 20.9499 12.5723 21.2407C12.5723 21.5315 13.023 21.7615 13.6077 21.7615Z" fill="#E23546"/>
<path d="M30.3016 25.5847C30.3118 25.953 29.9895 26.439 29.3005 26.439C28.6246 26.439 28.3274 25.702 28.3274 25.702L28.3219 26.632C28.3219 26.632 28.8226 26.9998 29.6052 26.9998H29.6044C30.5365 26.9998 31.4554 26.2897 31.4274 25.2971C31.4177 24.9449 31.2992 24.6457 31.1148 24.3878C30.7988 23.9672 30.2291 23.6559 29.7774 23.3909C29.1642 23.0305 29.2469 22.2562 30.1464 22.3297C30.8203 22.3847 31.1056 23.0438 31.1056 23.0438V22.1776C31.1056 22.1776 30.5864 21.7617 29.803 21.7617C28.9892 21.7617 28.2654 22.3085 28.2856 23.0035C28.3034 23.6185 28.5503 24.0195 29.0473 24.3862C29.2445 24.536 29.4794 24.6796 29.7509 24.8339C30.1488 25.0557 30.2948 25.3292 30.3016 25.5847Z" fill="#E23546"/>
<path d="M20.3606 22.9202C20.3606 23.4314 19.9343 23.66 19.6559 23.7841C18.8455 24.1442 17.8086 24.5412 17.8086 25.7386C17.8086 26.5401 18.3798 26.9998 19.1821 26.9998C19.797 26.9998 20.1059 26.6767 20.2588 26.3723C20.3517 26.9627 20.6411 26.9897 20.6411 26.9897C21.3497 26.9897 21.9991 26.9939 21.9991 26.9939C21.9991 26.9939 21.4694 26.6282 21.4694 25.9433V23.0109C21.4694 22.3068 20.7035 21.7617 19.891 21.7617C19.1094 21.7617 18.6162 22.1454 18.6162 22.1454C18.6162 22.3804 18.6162 23.0541 18.6162 23.0541C18.6162 23.0541 18.895 22.3329 19.6016 22.3329C20.188 22.3329 20.3606 22.6254 20.3606 22.9202ZM19.6249 26.3979C19.1968 26.3979 18.9053 26.1645 18.9053 25.6698C18.9053 24.4932 19.956 24.251 20.2378 23.9028L20.236 26.0986C20.2268 26.1071 20.0468 26.3979 19.6249 26.3979Z" fill="#E23546"/>
</svg>
