<svg width="32" height="32" viewBox="0 0 32 32" fill="none" xmlns="http://www.w3.org/2000/svg">
<path d="M3.16956 1.17188H28.0201V10.5895C28.0201 14.8933 26.4059 24.0553 15.7007 30.8736C15.7007 30.8736 4.06105 26.0157 3.16895 10.5895L3.16956 1.17188Z" fill="#A51C30"/>
<path d="M11.3423 16.0298C11.2799 16.0272 11.2258 16.0585 11.1822 16.0964C11.0972 16.1703 11.0463 16.2724 11.0436 16.2778C10.9488 16.4109 10.7493 16.4445 10.5682 16.4393C10.3871 16.4341 10.2313 16.3927 10.2313 16.3927L10.2214 16.3901L10.2114 16.3935C9.95103 16.4806 9.83512 16.5917 9.78745 16.6873C9.76361 16.7351 9.75758 16.7784 9.75758 16.8097C9.75758 16.8342 9.76068 16.845 9.76256 16.8521V17.8284C9.75307 17.8822 9.72822 17.9152 9.69369 17.9383C9.65867 17.9617 9.61199 17.9741 9.56509 17.979C9.47129 17.9889 9.38007 17.9691 9.38007 17.9691H9.37923C9.05259 17.9035 8.82861 17.9803 8.68892 18.0756C8.55151 18.1693 8.49663 18.2784 8.49477 18.282C8.35504 18.4717 8.44748 18.7381 8.44748 18.7381V18.7398C8.45653 18.764 8.46703 18.7869 8.47901 18.808C8.47914 18.8084 8.48067 18.813 8.48067 18.813C8.60811 19.1539 9.07555 19.1534 9.07555 19.1534C9.24547 19.2812 9.54266 19.1958 9.54266 19.1958C9.62997 19.1958 9.68073 19.2322 9.71192 19.2782C9.72741 19.341 9.72022 19.4039 9.72022 19.4039L9.71937 19.4114L9.72104 19.418C9.72388 19.4294 9.72977 19.4885 9.73265 19.5695C9.73554 19.6505 9.73664 19.7571 9.73763 19.8808C9.73962 20.1281 9.73861 20.4425 9.73597 20.7514C9.73066 21.369 9.7202 21.9657 9.7202 21.9657C9.7202 22.1741 9.67955 22.2961 9.67955 22.2961L9.67789 22.3011V22.3069C9.67789 22.3173 9.67449 22.3226 9.66295 22.3318C9.65142 22.3411 9.63112 22.3512 9.60404 22.3585C9.54989 22.373 9.47223 22.3785 9.39414 22.3785C9.23794 22.3785 9.0797 22.3577 9.0797 22.3577L9.07553 22.3569L9.07137 22.3577C8.62901 22.402 8.49204 22.8004 8.49058 22.8046V22.8054C8.45552 22.8881 8.45858 22.972 8.48229 23.0476C8.49418 23.0856 8.51146 23.1218 8.53124 23.1558C8.6102 23.3493 8.82081 23.5004 8.82081 23.5004C8.82081 23.5856 9.6281 23.6277 9.6281 23.6277C9.67703 23.64 9.71032 23.6745 9.73513 23.716C9.73759 23.7235 9.74057 23.7308 9.7426 23.7384C9.76245 23.8131 9.76251 23.8832 9.76251 23.8832C9.75646 23.906 9.75414 23.9315 9.75255 23.9681C9.75077 24.0095 9.74987 24.0606 9.75089 24.1179C9.75288 24.2327 9.7595 24.373 9.76748 24.5091C9.78344 24.7813 9.80482 25.0368 9.80482 25.0368L9.80566 25.0385V25.0401C9.81017 25.0673 9.82336 25.0908 9.83968 25.1117C9.83969 25.1118 9.84052 25.1192 9.84052 25.1192C9.883 25.3749 10.6901 25.2898 10.6901 25.2898C10.6901 25.2898 13.5191 25.2243 14.2836 25.2365C14.3928 25.2382 14.4597 25.242 14.4703 25.2474C14.5552 25.2474 14.7681 25.2049 14.7681 25.2049L15.0652 25.418C15.1846 25.5112 15.3084 25.5378 15.4219 25.5304C15.4446 25.5291 15.4673 25.526 15.4891 25.522C15.7069 25.4825 15.8724 25.3323 15.8724 25.3323L16.2973 25.2474C16.3822 25.2474 19.8234 25.2049 19.8234 25.2049C20.1208 25.2902 20.2482 25.1617 20.2482 25.1617L20.8 25.1192C20.8212 25.1192 20.841 25.1176 20.8597 25.1142C20.9947 25.0894 21.0641 24.9812 21.1003 24.8754C21.1111 24.8544 21.1225 24.8334 21.1302 24.8121C21.1752 24.6879 21.1742 24.5658 21.1742 24.5658V23.845C21.1813 23.788 21.1944 23.7434 21.209 23.7035C21.2864 23.5666 21.3949 23.5429 21.3949 23.5429L21.9043 23.4571L22.1598 23.3298C22.2578 23.3052 22.3095 23.2364 22.339 23.1534C22.3466 23.1415 22.3547 23.1303 22.3606 23.1176C22.3958 23.0425 22.4062 22.955 22.4062 22.872C22.4062 22.706 22.3623 22.5533 22.3623 22.5533L22.3614 22.5499L22.3606 22.5465C22.2676 22.3599 22.0531 22.2838 21.8678 22.251C21.6825 22.2182 21.5193 22.2294 21.5193 22.2294H21.5185C21.314 22.2499 21.2368 22.1911 21.2015 22.1336C21.1663 22.0761 21.1742 22.0138 21.1742 22.0138V22.0112L21.2173 19.3704C21.2341 19.2714 21.2628 19.1925 21.2912 19.1282C21.3244 19.0644 21.3525 19.0258 21.3525 19.0258C21.48 19.0684 21.9043 18.9401 21.9043 18.9401C22.1484 18.9156 22.2501 18.7654 22.2943 18.6413C22.2982 18.634 22.3041 18.6268 22.3075 18.6196C22.3635 18.5017 22.3631 18.3931 22.3631 18.3899C22.3858 18.2228 22.27 18.0847 22.1549 17.9913C22.0393 17.8974 21.9184 17.8431 21.9184 17.8431L21.9118 17.8397H21.3152C21.2987 17.8363 21.2852 17.8275 21.2712 17.8089C21.2569 17.7899 21.2433 17.7617 21.2331 17.7273C21.2127 17.6586 21.2033 17.5659 21.2007 17.4743C21.1955 17.2912 21.2165 17.1123 21.2165 17.1123L21.2173 17.1097V16.767C21.2173 16.6013 21.0993 16.4849 20.9883 16.4125C20.8773 16.3401 20.7676 16.3076 20.7676 16.3076L20.7626 16.306H20.0051C19.988 16.2775 19.9689 16.2496 19.9404 16.2311C19.9028 16.2066 19.8592 16.1884 19.8176 16.1745C19.7344 16.1466 19.6575 16.1362 19.6575 16.1362C19.519 16.0926 19.3132 16.0929 19.3132 16.0929H19.3024L19.2932 16.0988C19.0288 16.2824 18.5647 16.3594 18.169 16.3859C17.7732 16.4124 17.4463 16.3918 17.4463 16.3918L16.1138 16.3052L16.1022 16.316C16.1061 16.3122 16.0977 16.319 16.084 16.3235C16.0702 16.3281 16.0505 16.3337 16.0284 16.3385C15.9841 16.3482 15.9277 16.3572 15.8724 16.3652C15.7618 16.381 15.6558 16.3918 15.6558 16.3918L15.6343 16.3934L15.6268 16.4151C15.5902 16.5253 15.4791 16.5632 15.4791 16.5632L15.3621 16.6032C15.2845 16.537 15.1634 16.4868 15.0485 16.4517C14.9273 16.4147 14.8266 16.3944 14.822 16.3934C14.8212 16.393 14.8203 16.3922 14.8195 16.3918C14.8155 16.3901 14.8114 16.3892 14.8079 16.3884C14.8008 16.3867 14.7942 16.3858 14.7855 16.385C14.7681 16.3833 14.7458 16.3828 14.7183 16.3824C14.6633 16.382 14.5881 16.3836 14.4992 16.3867C14.3215 16.3927 14.089 16.4041 13.8579 16.4175C13.3961 16.4441 12.9402 16.4765 12.9394 16.4766C12.4128 16.4977 12.057 16.4129 11.8335 16.3243C11.6098 16.2356 11.5215 16.1461 11.5215 16.1461C11.4654 16.0693 11.4035 16.0322 11.3423 16.0298ZM11.3398 16.0997C11.377 16.1013 11.42 16.1221 11.4692 16.1912L11.4701 16.1929L11.4717 16.1954C11.4717 16.1954 11.5747 16.2969 11.8078 16.3894C12.0408 16.4818 12.4066 16.5682 12.942 16.5467H12.9445C12.9445 16.5467 13.4004 16.5142 13.8621 16.4876C14.0929 16.4743 14.3251 16.4628 14.5018 16.4568C14.5901 16.4538 14.6653 16.4521 14.7184 16.4525C14.7449 16.4527 14.7657 16.4537 14.7797 16.4551C14.7856 16.4555 14.7894 16.4563 14.7922 16.4567L14.7939 16.4584L14.8038 16.4609C14.8038 16.4609 14.9092 16.4816 15.0295 16.5183C15.1498 16.5551 15.2862 16.6111 15.339 16.664L15.3539 16.679L15.5016 16.6299C15.5016 16.6299 15.5922 16.5766 15.6534 16.4842C15.6061 16.5996 15.49 16.639 15.49 16.639L15.363 16.7248C15.2356 16.5969 14.8105 16.5117 14.8105 16.5117C14.768 16.4691 12.9412 16.5966 12.9412 16.5966C11.8791 16.6392 11.4967 16.2562 11.4967 16.2562C11.2843 15.9579 11.0718 16.3835 11.0718 16.3835C10.8594 16.6818 10.2222 16.5117 10.2222 16.5117C9.98714 16.5903 9.8819 16.6866 9.83312 16.7681C9.83643 16.7532 9.84153 16.737 9.85054 16.719C9.8874 16.645 9.98663 16.5454 10.2297 16.4626C10.2433 16.466 10.3853 16.504 10.5674 16.5092C10.758 16.5147 10.9833 16.4838 11.1009 16.3186L11.1026 16.317L11.1042 16.3144C11.1042 16.3144 11.1558 16.2115 11.2278 16.1488C11.2639 16.1175 11.3026 16.0982 11.3398 16.0997ZM19.3232 16.1638C19.3383 16.164 19.5306 16.1663 19.6426 16.2037L19.6459 16.2045L19.6484 16.2054C19.6484 16.2054 19.7208 16.2157 19.797 16.2411C19.835 16.2539 19.8739 16.2699 19.904 16.2894C19.9088 16.2924 19.9113 16.2962 19.9156 16.2994C19.8136 16.2364 19.6534 16.2128 19.6534 16.2128C19.526 16.1702 19.3133 16.1704 19.3133 16.1704C18.761 16.5539 17.444 16.4692 17.444 16.4692L16.1272 16.3835C16.0852 16.4256 15.6747 16.4674 15.6651 16.4684C15.6669 16.4654 15.6692 16.4631 15.6709 16.46C15.6771 16.4596 15.7743 16.4498 15.8833 16.4342C15.9395 16.4262 15.997 16.417 16.0443 16.4068C16.0679 16.4016 16.0889 16.396 16.1065 16.3901C16.1164 16.3867 16.124 16.381 16.1322 16.3768L17.4423 16.4609C17.4423 16.4609 17.7742 16.4827 18.1749 16.4559C18.571 16.4294 19.0346 16.3583 19.3232 16.1638ZM19.9886 16.376H20.7519C20.7544 16.3768 20.8151 16.4002 20.8855 16.4368C20.8143 16.4011 20.7577 16.3835 20.7577 16.3835H19.9928C19.9919 16.3809 19.9897 16.3786 19.9886 16.376ZM20.8996 16.4443C20.9179 16.4541 20.9328 16.4593 20.9519 16.4717C20.9571 16.4751 20.9617 16.4798 20.9668 16.4833C20.9439 16.4686 20.9214 16.4556 20.8996 16.4443ZM21.2025 17.8267C21.2072 17.8347 21.2111 17.8435 21.2166 17.8508C21.2383 17.8796 21.2676 17.9018 21.3037 17.9091L21.307 17.9099H21.8961C21.9011 17.912 22.0068 17.9611 22.1118 18.0464C22.1854 18.1062 22.2501 18.181 22.2794 18.2636C22.2033 18.141 22.0631 18.0471 21.9774 17.9981C21.9342 17.9735 21.9043 17.9607 21.9043 17.9607H21.3103C21.2583 17.9502 21.2244 17.8983 21.2025 17.8267ZM9.77683 17.9565C9.67001 18.1593 9.37276 18.088 9.37276 18.088C8.73556 17.9602 8.52316 18.3868 8.52316 18.3868C8.51735 18.3946 8.514 18.4029 8.50905 18.411C8.51871 18.3796 8.53178 18.3492 8.5522 18.3219L8.55552 18.3168C8.55552 18.3168 8.60394 18.2187 8.72976 18.1329C8.85541 18.0471 9.05623 17.9753 9.36614 18.0371C9.36614 18.0371 9.46558 18.0594 9.57356 18.048C9.62755 18.0423 9.68508 18.0289 9.73369 17.9964C9.74974 17.9856 9.76363 17.9717 9.77683 17.9565ZM21.1479 22.1754C21.1992 22.2538 21.311 22.3206 21.5254 22.2994C21.5254 22.2994 21.6815 22.2891 21.8573 22.3202C22.0327 22.3512 22.2206 22.4238 22.2978 22.5774C22.2981 22.5782 22.3027 22.5996 22.3045 22.6065C22.1052 22.3113 21.5229 22.3493 21.5229 22.3493C21.2452 22.3772 21.1686 22.2603 21.1479 22.1754ZM9.71711 22.376C9.71651 22.3781 9.71294 22.3918 9.71294 22.3918C9.71294 22.4131 9.70299 22.4311 9.68557 22.445C9.66814 22.459 9.64325 22.4695 9.61338 22.4775C9.43417 22.5254 9.07574 22.4775 9.07574 22.4775C8.76823 22.5084 8.61751 22.7162 8.55718 22.8296C8.55718 22.8296 8.67533 22.4689 9.07906 22.4276C9.08625 22.4284 9.23654 22.4484 9.39517 22.4484C9.47637 22.4484 9.55718 22.4434 9.62249 22.4259C9.65516 22.4172 9.68463 22.4055 9.70795 22.3868C9.71161 22.3838 9.71385 22.3794 9.71711 22.376ZM12.6766 4.20117L12.6642 4.212C12.0013 4.75232 11.038 4.5033 11.038 4.5033L11.0338 4.50248H11.0297C10.0941 4.50248 9.79261 4.54492 9.79261 4.54492L9.77933 4.54748L9.77103 4.55744C9.67434 4.67384 9.55582 4.6722 9.4516 4.64234C9.34987 4.61315 9.27274 4.55602 9.26907 4.55328C9.24993 4.52524 9.21933 4.50928 9.1861 4.49751C9.14847 4.48417 9.10537 4.47638 9.06414 4.47088C8.98167 4.45984 8.90566 4.45925 8.90566 4.45925H8.904L8.90316 4.46007C7.97089 4.52383 7.38957 4.4703 7.04299 4.40181C6.8697 4.36759 6.75523 4.32927 6.68457 4.30027C6.6139 4.27125 6.58915 4.25283 6.58915 4.25283L6.59332 4.25709C6.57979 4.24354 6.56682 4.2386 6.551 4.23378C6.53518 4.22896 6.51698 4.2253 6.49707 4.22215C6.45725 4.21585 6.41009 4.21235 6.36432 4.20965C6.27277 4.20412 6.18677 4.20381 6.18677 4.20381H6.16519L6.15524 4.22293C6.11829 4.29705 6.00376 4.45258 5.99511 4.46429C5.98996 4.46594 5.97853 4.4694 5.95777 4.47178C5.93382 4.47434 5.90257 4.47664 5.86733 4.47763C5.79687 4.47975 5.70964 4.47845 5.62507 4.47598C5.45592 4.47069 5.29735 4.46017 5.29735 4.46017L5.29568 4.45935H5.29484C5.11766 4.45935 5.01102 4.51685 4.95136 4.5767C4.89169 4.63656 4.87835 4.70071 4.87835 4.70071L4.8775 4.70327L4.83519 5.51809V5.52064C4.8562 5.77359 4.83076 5.87597 4.81362 5.90349C4.80505 5.91726 4.80484 5.91432 4.80449 5.91432L4.77546 5.8952L4.75554 5.92434C4.74446 5.941 4.70213 5.96355 4.64188 5.97677C4.58162 5.98999 4.50675 5.99664 4.43362 5.99923C4.28736 6.00448 4.15069 5.99425 4.15069 5.99425L4.14738 5.99343L4.14407 5.99425C4.02866 6.00584 3.94229 6.06249 3.88189 6.13824C3.82149 6.21398 3.78525 6.30769 3.76325 6.39874C3.71924 6.58084 3.73089 6.7558 3.73089 6.7558V6.76C3.75395 6.87565 3.81968 6.95682 3.9018 7.00885C3.98393 7.06088 4.08207 7.08603 4.17559 7.09707C4.35751 7.11855 4.51735 7.08795 4.52655 7.08624H4.52739C4.75352 7.10712 4.83566 7.17722 4.86591 7.23356C4.89621 7.29001 4.87918 7.33926 4.87918 7.33926L4.87752 7.34424V7.35009C4.87752 7.43823 4.88847 8.13893 4.89909 8.82076C4.90967 9.50006 4.91975 10.1534 4.91983 10.1583C4.90973 10.2495 4.88534 10.3068 4.85678 10.3422C4.82821 10.3776 4.7956 10.3929 4.76219 10.3996C4.69539 10.413 4.62861 10.3863 4.62861 10.3863L4.62197 10.3829H4.61533C4.14014 10.3829 3.92164 10.5493 3.83043 10.7208C3.73967 10.8915 3.77369 11.0605 3.77401 11.0621C3.79732 11.3714 3.99172 11.5141 4.17475 11.5698C4.35843 11.6256 4.53402 11.603 4.53402 11.603L4.52986 11.6039C4.75716 11.6039 4.85034 11.6641 4.88994 11.7171C4.92956 11.77 4.92065 11.8186 4.92065 11.8186L4.91898 11.8294L4.92396 11.8403C4.92252 11.8373 4.92893 11.862 4.9306 11.8944C4.93226 11.9267 4.93323 11.9697 4.93226 12.0192C4.93031 12.1181 4.92361 12.2432 4.91567 12.3654C4.89977 12.6099 4.87833 12.844 4.87833 12.844V12.8483L4.87917 12.8532C4.92358 13.0982 5.06482 13.1988 5.19197 13.2278C5.30979 13.2546 5.40688 13.227 5.4218 13.2228H5.42347L8.81438 13.3085C9.29848 13.6623 9.6111 13.6725 9.79839 13.5757C9.97765 13.4831 10.0247 13.3177 10.0307 13.2985L10.0896 13.3077C10.1275 13.314 10.2017 13.3173 10.3103 13.3202C10.4189 13.3232 10.5597 13.325 10.7218 13.326C11.046 13.3282 11.4549 13.3268 11.8585 13.3244C12.2621 13.3218 12.661 13.3177 12.9637 13.3144C13.265 13.311 13.4713 13.3086 13.4914 13.3086H13.4939C13.6331 13.3396 13.7419 13.3326 13.8257 13.3002C13.9111 13.2673 13.969 13.2089 14.0066 13.1479C14.0814 13.0267 14.0813 12.8932 14.0813 12.8916V12.8899L14.1236 11.8745C14.1409 11.8078 14.2131 11.7589 14.2879 11.7289C14.3603 11.6998 14.4256 11.6905 14.4306 11.6898C14.9022 11.7523 15.1333 11.5854 15.2345 11.3993C15.3358 11.213 15.3136 11.0139 15.3134 11.0123V11.0115C15.2909 10.7014 15.1077 10.5483 14.935 10.4813C14.7622 10.4142 14.5965 10.4264 14.5965 10.4264L14.599 10.4255C14.3738 10.4255 14.2705 10.347 14.2182 10.2707C14.1662 10.1948 14.1659 10.1216 14.1659 10.1209V10.1201C14.1777 10.046 14.1849 9.86237 14.1908 9.61322C14.1968 9.36122 14.2006 9.04968 14.2033 8.74597C14.2086 8.13854 14.2091 7.56328 14.2091 7.56328C14.2091 7.51101 14.2386 7.42676 14.2696 7.35937C14.2968 7.30041 14.3172 7.26616 14.3236 7.25533C14.5852 7.28205 14.7851 7.26637 14.9251 7.21621C15.0713 7.16384 15.1613 7.0783 15.213 6.989C15.3152 6.81241 15.2696 6.62624 15.2686 6.62196C15.288 6.46189 15.264 6.3408 15.208 6.25658C15.1508 6.17042 15.0656 6.12235 14.9807 6.09678C14.816 6.04722 14.6516 6.07735 14.6414 6.0793C14.3506 6.0793 14.2509 5.99847 14.2157 5.92783C14.1805 5.85687 14.2066 5.78519 14.2066 5.78519L14.2075 5.78179L14.2083 5.77838C14.2726 5.36994 14.2514 5.08823 14.2133 4.9078C14.1751 4.72738 14.117 4.64479 14.117 4.64479L14.1137 4.63981L14.1079 4.63555C14.0645 4.60653 14.002 4.59549 13.9262 4.58727C13.8505 4.57904 13.7628 4.57645 13.6798 4.57645C13.5137 4.57645 13.3645 4.58727 13.3645 4.58727L13.3537 4.5881L13.3463 4.59392C13.3159 4.61681 13.2829 4.61424 13.2376 4.59137C13.1922 4.56862 13.1411 4.52468 13.0949 4.47568C13.0023 4.37769 12.9289 4.26261 12.9289 4.26261L12.9206 4.25011L12.6766 4.20117ZM24.6989 4.20117L24.6864 4.212C24.0235 4.75232 23.0602 4.5033 23.0602 4.5033L23.0561 4.50248H23.0511C22.1579 4.50248 21.8571 4.54492 21.8571 4.54492L21.8439 4.54748L21.8356 4.55744C21.7389 4.67384 21.6204 4.6722 21.5161 4.64234C21.4159 4.61361 21.3403 4.55842 21.3344 4.55411C21.3154 4.52543 21.2843 4.50941 21.2506 4.49751C21.213 4.48417 21.1699 4.47638 21.1287 4.47088C21.0462 4.45984 20.9702 4.45925 20.9702 4.45925H20.9686L20.9677 4.46007C20.0355 4.52383 19.4542 4.4703 19.1076 4.40181C18.9343 4.36759 18.8198 4.32927 18.7492 4.30027C18.6785 4.27125 18.6537 4.25283 18.6537 4.25283L18.6579 4.25709C18.6444 4.24354 18.6306 4.2386 18.6148 4.23378C18.5989 4.22896 18.5816 4.2253 18.5617 4.22215C18.5218 4.21585 18.4739 4.21235 18.4281 4.20965C18.3365 4.20424 18.2514 4.20381 18.2514 4.20381H18.2298L18.2198 4.22293C18.1828 4.29723 18.067 4.45412 18.0589 4.46513C18.0533 4.46678 18.0418 4.46948 18.0215 4.47178C17.9976 4.47434 17.9672 4.47664 17.9319 4.47763C17.8615 4.47975 17.7742 4.47845 17.6897 4.47598C17.5205 4.47069 17.3611 4.46017 17.3611 4.46017L17.3602 4.45935H17.3594C17.1618 4.45935 17.0456 4.51539 16.9802 4.57504C16.9148 4.63469 16.8998 4.70071 16.8998 4.70071V5.56303C16.9207 5.79446 16.8943 5.8862 16.879 5.90759C16.8714 5.91829 16.8721 5.91432 16.8707 5.91424C16.8694 5.91416 16.8682 5.91424 16.8682 5.91424L16.84 5.89511L16.8201 5.92426C16.809 5.94092 16.7667 5.96346 16.7064 5.97669C16.6462 5.98991 16.5705 5.99656 16.4973 5.99915C16.3511 6.0044 16.2144 5.99417 16.2144 5.99417L16.2119 5.99334L16.2086 5.99417C16.0834 6.00559 15.9891 6.06093 15.9224 6.13649C15.8556 6.21205 15.8152 6.30654 15.7904 6.39784C15.7408 6.58041 15.7523 6.75572 15.7523 6.75572V6.75736L15.7531 6.75992C15.7762 6.87557 15.8419 6.95674 15.924 7.00877C16.0061 7.06079 16.1035 7.08595 16.197 7.09699C16.3789 7.11847 16.5396 7.08787 16.5488 7.08616H16.5496C16.7758 7.10704 16.8571 7.17714 16.8873 7.23348C16.9176 7.28993 16.9014 7.33918 16.9014 7.33918L16.9006 7.34V7.34165C16.8925 7.37391 16.8902 7.42901 16.8873 7.5181C16.8844 7.60718 16.8825 7.72501 16.8815 7.86101C16.8795 8.133 16.8805 8.47964 16.8831 8.82064C16.8884 9.5001 16.8997 10.1533 16.8997 10.1581C16.8896 10.2494 16.8644 10.3067 16.8358 10.3421C16.8073 10.3775 16.7747 10.3928 16.7413 10.3995C16.6745 10.4129 16.6085 10.3862 16.6085 10.3862L16.6019 10.3828H16.5944C16.1192 10.3828 15.9007 10.5492 15.8095 10.7207C15.7187 10.8914 15.7528 11.0603 15.7531 11.0619C15.7764 11.3713 15.9708 11.514 16.1538 11.5696C16.3375 11.6255 16.5139 11.6029 16.5139 11.6029L16.5097 11.6037C16.7152 11.6037 16.8083 11.6635 16.8541 11.7186C16.8999 11.7737 16.8997 11.8243 16.8997 11.8243V11.8326L16.903 11.8401C16.9016 11.8371 16.908 11.8618 16.9097 11.8942C16.9113 11.9265 16.9115 11.9696 16.9105 12.0191C16.9085 12.118 16.9019 12.2431 16.8939 12.3653C16.878 12.6097 16.8574 12.8439 16.8574 12.8439L16.8566 12.8481L16.8574 12.8531C16.9018 13.0981 17.0439 13.1986 17.171 13.2276C17.2887 13.2545 17.3858 13.2278 17.4009 13.2234H17.4025L20.7934 13.3091C21.2775 13.6629 21.5893 13.6731 21.7766 13.5763C21.9572 13.483 22.0153 13.306 22.0205 13.2891L22.0214 13.2883C22.0366 13.259 22.0691 13.245 22.0853 13.245C22.0934 13.245 22.0927 13.2467 22.0911 13.2442C22.0894 13.2417 22.0927 13.2434 22.0853 13.2584L22.0645 13.3008L22.111 13.3083C22.1489 13.3146 22.2231 13.3178 22.3317 13.3208C22.4403 13.3238 22.5811 13.3256 22.7432 13.3266C23.0674 13.3288 23.4762 13.3275 23.8799 13.325C24.2835 13.3224 24.6815 13.3183 24.9842 13.315C25.2869 13.3116 25.4969 13.3092 25.5152 13.3092C25.6645 13.3402 25.7785 13.3324 25.8645 13.3C25.952 13.2671 26.0094 13.2085 26.0445 13.1469C26.1148 13.0236 26.1018 12.8864 26.1018 12.8864L26.1026 12.8914L26.1449 11.8743C26.1622 11.8076 26.2336 11.7586 26.3084 11.7286C26.3814 11.6993 26.448 11.6909 26.4519 11.6904C26.9235 11.7529 27.1547 11.5852 27.2559 11.3991C27.3572 11.2128 27.3341 11.0145 27.3339 11.0129V11.0112C27.3115 10.7011 27.1291 10.5481 26.9564 10.4811C26.7835 10.4139 26.617 10.4261 26.617 10.4261L26.6203 10.4253C26.3732 10.4253 26.2719 10.3459 26.2254 10.2713C26.1789 10.1968 26.1881 10.124 26.1881 10.124V10.1198C26.1881 9.86802 26.2304 7.56377 26.2304 7.56377V7.56294C26.2304 7.51067 26.26 7.42642 26.291 7.35903C26.3181 7.30004 26.3394 7.2658 26.3457 7.25499C26.6074 7.28171 26.8072 7.26603 26.9472 7.21587C27.0934 7.1635 27.1835 7.07796 27.2352 6.98866C27.3374 6.81207 27.2918 6.6259 27.2907 6.62162C27.3101 6.46155 27.2853 6.34046 27.2293 6.25624C27.1721 6.17008 27.087 6.12201 27.002 6.09644C26.8366 6.04668 26.6717 6.07728 26.6627 6.07896C26.3719 6.07896 26.2731 5.99813 26.2379 5.92749C26.2026 5.85685 26.2287 5.78517 26.2287 5.78517L26.2304 5.77833C26.2946 5.36989 26.2735 5.08818 26.2353 4.90776C26.1972 4.72734 26.1391 4.64475 26.1391 4.64475L26.1349 4.63976L26.1299 4.6355C26.0866 4.60648 26.024 4.59545 25.9482 4.58723C25.8725 4.579 25.7849 4.5764 25.7018 4.5764C25.5357 4.5764 25.3857 4.58723 25.3857 4.58723L25.3758 4.58805L25.3675 4.5939C25.3371 4.61678 25.305 4.61422 25.2596 4.59135C25.2142 4.56859 25.1624 4.52466 25.1161 4.47566C25.0235 4.37766 24.951 4.26259 24.951 4.26259L24.9427 4.25009L24.6989 4.20117Z" fill="black"/>
<path d="M15.6592 31L15.5743 30.9574C15.4893 30.9148 3.89211 25.8865 3 10.5881V1H28.1481V10.5454C28.1481 14.2955 26.9587 23.8408 15.7438 30.9148L15.6592 31ZM3.29737 1.29748V10.5446C4.14697 25.0331 14.6822 30.2321 15.6592 30.6583C26.6617 23.6271 27.8512 14.2521 27.8512 10.5446V1.29748H3.29737Z" fill="black"/>
<path d="M6.7392 4.58207C6.7392 4.58207 6.48432 4.58223 6.5268 4.75269L6.44217 11.2297C6.44217 11.2297 6.442 11.5283 6.90928 11.5709C6.90928 11.5709 7.50367 11.6135 7.63111 11.5709H8.99099C8.99099 11.5709 9.24571 11.826 9.24571 11.5276C9.24571 11.5276 9.4153 6.28689 9.33034 5.17891C9.33034 5.17891 9.33017 4.70949 8.94784 4.70949C8.94784 4.70949 7.41921 4.83733 7.29177 4.70949L6.7392 4.58207ZM12.6359 4.59203C12.5799 4.58705 12.4897 4.60303 12.3463 4.66694C12.3463 4.66694 12.3895 4.83789 10.4779 4.75266C10.4354 4.75266 9.71306 4.75225 9.67058 5.05064C9.67058 5.05064 9.62827 8.11888 9.62827 8.20411L9.58512 10.761L9.54281 11.6557C9.54281 11.6557 9.67025 11.826 9.75521 11.6981C9.75521 11.6981 10.3924 11.528 10.8172 11.6132C10.8172 11.6132 12.0921 11.7406 12.3895 11.5275C12.3895 11.5275 12.6017 11.6128 12.6442 11.3145C12.6442 11.3145 12.729 5.64693 12.6865 5.5617C12.6865 5.5617 12.7713 4.75221 12.7288 4.66698C12.7288 4.66698 12.7292 4.60036 12.6359 4.59203ZM5.63243 4.751C5.54905 4.75356 5.42766 4.80593 5.25244 4.96572L5.21012 5.81799C5.21012 5.81799 5.21012 6.28673 4.78531 6.24414C4.78531 6.24414 4.31752 6.24414 4.06266 6.45721C4.06266 6.45721 3.93555 6.88268 4.40283 6.84006C4.40283 6.84006 5.12533 6.84047 5.16781 7.13886L5.12466 10.2067C5.12466 10.2067 5.29525 10.7186 4.74301 10.7186C4.74301 10.7186 4.06265 10.6753 4.06265 11.1014C4.06265 11.1014 4.19059 11.443 4.7853 11.3578C4.7853 11.3578 5.21028 11.4428 5.1678 11.8263V12.5929C5.1678 12.5929 5.12466 12.8915 5.54946 12.9341H8.69307C8.69307 12.9341 8.86316 12.934 8.86316 12.7635C8.86316 12.7635 8.86333 12.5929 8.60844 12.5929L6.01728 12.508C6.01728 12.508 5.59181 12.6362 5.54933 11.997C5.54933 11.997 5.59046 6.52503 5.59165 6.28416C5.59167 6.28426 5.59249 6.28672 5.59249 6.28672C5.59249 6.28672 5.59177 6.2666 5.59165 6.26426C5.59166 6.26212 5.59249 6.20193 5.59249 6.201C5.59169 6.19936 5.5916 6.19936 5.59082 6.19759C5.58631 5.98816 5.58552 5.24683 5.80489 4.88006C5.80489 4.88006 5.77141 4.74684 5.63243 4.751ZM13.6764 4.76681C13.4941 4.78262 13.4939 5.00817 13.4939 5.00817C13.5788 5.0934 13.6208 5.39187 13.6208 5.39187C13.6633 6.07368 13.6208 6.84056 13.6208 7.565C13.5783 9.99403 13.4939 12.21 13.4939 12.21C13.4939 12.6787 13.2391 12.5504 13.2391 12.5504H10.4347C10.1374 12.5504 10.1377 12.721 10.1377 12.721C10.1802 12.9767 10.4347 12.8916 10.4347 12.8916C10.6896 12.9342 13.4938 12.8916 13.4938 12.8916C13.9186 12.9342 13.8763 12.3798 13.8763 12.3798C13.9188 11.3996 14.0033 11.3144 14.0033 11.3144C14.0882 11.2718 14.5558 11.272 14.5558 11.272C15.3205 11.3146 14.9807 10.8034 14.9807 10.8034C14.8957 10.6756 14.3858 10.6752 14.3858 10.6752C13.9185 10.7178 13.961 10.2067 13.961 10.2067L14.0033 7.26625C13.9183 7.01056 14.131 6.8834 14.131 6.8834H14.5982C15.2354 6.92602 15.0653 6.49971 15.0653 6.49971C15.0653 6.28663 14.5135 6.20091 14.5135 6.20091C14.0038 6.28614 14.0456 5.98784 14.0456 5.98784V5.26376C14.1305 4.795 13.8332 4.79519 13.8332 4.79519C13.7694 4.77124 13.7185 4.76315 13.6764 4.76681ZM13.0765 4.8617C13.0223 4.86899 12.9627 4.9123 12.899 5.00818V11.4002C12.899 11.4002 13.0689 11.9538 13.3238 11.9112C13.3238 11.9112 13.3661 11.7838 13.3661 11.5708L13.4515 5.47669C13.4515 5.47669 13.3114 4.83006 13.0765 4.8617ZM6.22984 4.92246C5.84751 4.92246 5.80502 5.64738 5.80502 5.64738L5.76188 11.6982C5.80436 11.9965 5.88965 11.9537 5.88965 11.9537C6.27199 11.6981 6.22983 11.2721 6.22983 11.2721C6.22983 11.2721 6.27215 5.51955 6.27215 5.43432C6.27215 5.34909 6.22984 4.92246 6.22984 4.92246ZM6.40656 11.7381C6.38842 11.7389 6.36806 11.7419 6.34682 11.7481C6.26187 11.7724 6.15711 11.8457 6.06887 12.0227L6.06721 12.0261L6.06636 12.0295C6.06636 12.0295 6.04115 12.109 6.06056 12.1869C6.07026 12.2258 6.09511 12.2671 6.14021 12.2884C6.1838 12.309 6.24154 12.3097 6.31693 12.2892H8.39113L8.94786 12.4182L8.95533 12.4166C8.95533 12.4166 8.99512 12.4074 9.04411 12.3891C9.0931 12.3708 9.15283 12.3441 9.19677 12.3C9.21874 12.278 9.23711 12.2508 9.2449 12.2185C9.25268 12.1861 9.24846 12.149 9.23162 12.1128C9.19795 12.0404 9.11793 11.9668 8.96612 11.8797L8.95782 11.8747H6.95578C6.95268 11.8739 6.86221 11.8542 6.75832 11.8281C6.65267 11.8016 6.53185 11.7666 6.50029 11.7507L6.49863 11.7499H6.49778C6.49778 11.7499 6.46098 11.7352 6.40656 11.7381ZM12.718 11.8505C12.5985 11.8445 12.4318 11.8688 12.4318 11.8688C12.0919 12.0819 10.0953 11.9112 10.0953 11.9112C9.96786 11.9112 9.79744 12.1243 9.79744 12.1243C9.75495 12.5078 10.3925 12.3374 10.35 12.3374H12.7288C13.1111 12.4226 13.1113 12.2525 13.1113 12.2525C13.1113 12.1246 12.8142 11.8688 12.8142 11.8688C12.793 11.8581 12.7578 11.8525 12.718 11.8505ZM9.57522 12.3282C9.56433 12.329 9.55348 12.332 9.54286 12.3374C9.54286 12.3374 9.16037 12.3378 9.16037 12.8492C9.16037 12.8492 9.20285 13.2321 9.58518 13.2321C9.58518 13.2321 9.92536 13.147 9.92536 12.7635C9.92536 12.7635 9.73857 12.3142 9.57522 12.3282ZM18.7184 4.58203C18.7184 4.58203 18.4635 4.5822 18.5059 4.75265L18.4213 11.2296C18.4213 11.2296 18.4212 11.5283 18.8884 11.5709C18.8884 11.5709 19.4837 11.6135 19.6111 11.5709H20.9701C20.9701 11.5709 21.2248 11.8261 21.2248 11.4852C21.2248 11.4852 21.3953 6.24358 21.3103 5.1356C21.3103 5.1356 21.3101 4.66703 20.9278 4.66703C20.9278 4.66703 19.3984 4.79487 19.2709 4.66703L18.7184 4.58203ZM24.5984 4.63447C24.5482 4.63659 24.4748 4.65612 24.3686 4.70937C24.3686 4.70937 24.4109 4.88033 22.4993 4.7951C22.4568 4.7951 21.692 4.75215 21.692 5.09307C21.692 5.09307 21.6497 8.16132 21.6497 8.24655L21.6074 10.8034L21.5228 11.6981C21.5228 11.6981 21.6502 11.8684 21.7352 11.7406C21.7352 11.7406 22.3724 11.5705 22.7972 11.6557C22.7972 11.6557 24.0712 11.7839 24.3686 11.5708C24.3686 11.5708 24.5809 11.656 24.6233 11.3577C24.6233 11.3577 24.7081 5.69019 24.6656 5.60496C24.6656 5.60496 24.7513 4.79465 24.7088 4.70942C24.7088 4.70942 24.7089 4.62943 24.5984 4.63447ZM17.5693 4.75099C17.4859 4.75354 17.3645 4.80592 17.1893 4.96571V5.77471C17.1893 5.77471 17.1893 6.24347 16.7645 6.20085C16.7645 6.20085 16.2976 6.20085 16.0427 6.41392C16.0427 6.41392 15.9147 6.84023 16.382 6.79762C16.382 6.79762 17.1045 6.79803 17.147 7.09642L17.1047 10.1642C17.1047 10.1642 17.2746 10.6753 16.6798 10.6753C16.6798 10.6753 16.0003 10.6328 16.0003 11.059C16.0003 11.059 16.1274 11.3997 16.7222 11.3145C16.7222 11.3145 17.147 11.4004 17.147 11.7839V12.5505C17.147 12.5505 17.1048 12.8491 17.4872 12.8917H20.63C20.63 12.8917 20.8 12.8915 20.8 12.7211C20.8 12.7211 20.8002 12.5505 20.5453 12.5505L17.9964 12.508C17.9964 12.508 17.5718 12.6362 17.5293 11.997C17.5293 11.997 17.5718 6.28603 17.5293 6.2008V6.28653C17.5293 6.28653 17.4868 5.30609 17.7417 4.87996C17.7417 4.87996 17.7083 4.74683 17.5693 4.75099ZM25.6555 4.7668C25.4733 4.78261 25.473 5.00816 25.473 5.00816C25.5155 5.09339 25.6008 5.39186 25.6008 5.39186C25.6433 6.07367 25.6008 6.84054 25.6008 7.56499C25.5583 9.99402 25.473 12.21 25.473 12.21C25.473 12.6787 25.2183 12.5504 25.2183 12.5504H22.4147C22.1173 12.5504 22.1169 12.721 22.1169 12.721C22.1593 12.9767 22.457 12.8918 22.457 12.8492C22.7119 12.8918 25.5153 12.8492 25.5153 12.8492C25.9401 12.8918 25.8978 12.3373 25.8978 12.3373C25.9403 11.3572 26.0256 11.272 26.0256 11.272C26.1105 11.2293 26.5773 11.2295 26.5773 11.2295C27.2995 11.2721 26.9598 10.7609 26.9598 10.7609C26.8748 10.6331 26.3649 10.6328 26.3649 10.6328C25.8976 10.6754 25.9401 10.1642 25.9401 10.1642L25.9832 7.22379C25.8983 6.9681 26.1102 6.8401 26.1102 6.8401H26.5773C27.2145 6.88271 27.0452 6.45725 27.0452 6.45725C27.0452 6.24417 26.4927 6.15845 26.4927 6.15845C25.9829 6.24368 26.0255 5.94538 26.0255 5.94538V5.26375C26.1105 4.79499 25.8131 4.79518 25.8131 4.79518C25.7494 4.77123 25.6976 4.76314 25.6555 4.7668ZM25.0557 4.8775C25.0015 4.88197 24.9418 4.92028 24.8781 5.00817V11.4001C24.8781 11.4001 25.048 11.9538 25.3029 11.9112C25.3029 11.9112 25.3461 11.7838 25.3461 11.5708L25.4307 5.47668C25.4307 5.47668 25.2905 4.85817 25.0557 4.8775ZM18.209 4.92244C17.8267 4.92244 17.7842 5.64736 17.7842 5.64736L17.7419 11.6982C17.7843 11.9965 17.8688 11.9537 17.8688 11.9537C18.2511 11.698 18.209 11.2721 18.209 11.2721C18.209 11.2721 18.2513 5.51954 18.2513 5.43431C18.2513 5.34908 18.209 4.92244 18.209 4.92244ZM18.4521 11.7315C18.3779 11.7294 18.2412 11.7626 18.1244 11.997C18.1244 11.997 18.0394 12.2953 18.3368 12.2101H20.4178L20.9703 12.3374C20.9703 12.3374 21.5651 12.2097 20.9703 11.8688H18.9741C18.9741 11.8688 18.5911 11.7833 18.5062 11.7407C18.5062 11.7407 18.4858 11.7326 18.4521 11.7315ZM24.7205 11.8073C24.6126 11.8094 24.4964 11.8264 24.4964 11.8264C24.1566 12.0395 22.16 11.8688 22.16 11.8688C22.0325 11.8688 21.8621 12.0819 21.8621 12.0819C21.7771 12.4654 22.4147 12.295 22.4147 12.295H24.7934C25.1758 12.3802 25.1759 12.2101 25.1759 12.2101C25.1759 12.0822 24.8781 11.8264 24.8781 11.8264C24.8462 11.8104 24.7852 11.806 24.7205 11.8073ZM21.5976 12.2858C21.5864 12.2866 21.5758 12.2896 21.5652 12.295C21.5652 12.295 21.1825 12.2946 21.225 12.806C21.225 12.806 21.2675 13.1897 21.6498 13.1897C21.6498 13.1897 21.99 13.1473 21.99 12.7211C21.99 12.7211 21.7656 12.2718 21.5976 12.2858ZM15.2781 20.5621C15.2781 20.5621 15.2781 21.0308 15.2356 21.4996C15.1931 21.7553 15.3206 22.9484 15.2356 23.545C15.2356 23.545 15.2356 23.7581 14.8108 23.5877C14.8108 23.5877 12.2194 23.6303 12.177 23.545C12.177 23.545 11.4548 23.5877 11.4123 23.2041C11.4123 23.2041 11.4973 20.4342 11.4548 20.349C11.4548 20.349 11.4123 18.8575 11.4548 18.687C11.4548 18.687 11.4973 17.2808 11.4548 17.1103C11.4548 17.1103 11.4548 16.7694 11.4123 16.6416C11.4123 16.6416 11.4123 16.4285 11.7522 16.5564C11.7522 16.5564 11.8796 16.7694 12.5168 16.6842C12.5168 16.6842 12.9841 16.7694 13.4514 16.6842C13.4514 16.6842 14.4709 16.599 14.7258 16.6842C14.7258 16.6842 15.1506 16.599 15.2355 17.0677V18.3035L15.363 18.7297L15.4904 18.6444L15.5329 18.3461V17.0251C15.5329 17.0251 15.6179 16.7694 15.9577 16.7268C15.9577 16.7268 16.4675 16.6842 16.5524 16.7268C16.6374 16.7694 17.7419 16.8121 18.0392 16.7694C18.3366 16.7268 18.3791 16.9825 19.3137 16.5138C19.3137 16.5138 19.5685 16.5138 19.5685 16.6842C19.5685 16.6842 19.4836 18.3887 19.5685 18.7297C19.5685 18.7297 19.5685 21.8831 19.4836 22.0962L19.5261 23.1189C19.5261 23.1189 19.5686 23.5451 18.8464 23.5877C18.8464 23.5877 19.2712 23.6303 16.5099 23.5451C16.5099 23.5451 16.0851 23.5025 15.5753 23.7581C15.5753 23.7581 15.4904 23.7155 15.4904 23.4598C15.4904 23.4598 15.5753 22.5223 15.4904 21.5848L15.4479 20.5621L15.2781 20.5621ZM19.7384 23.332C19.7384 23.332 19.9933 23.8008 20.0783 23.8434C20.0783 23.8434 20.2907 24.0991 20.2482 23.6303L20.2907 17.7923C20.2907 17.7923 20.2482 17.5793 20.2907 17.281L20.0358 16.8548C20.0358 16.8548 19.7809 16.6418 19.7809 16.9827V23.1616L19.7384 23.332ZM11.2849 23.5877C11.2849 23.5877 11.5822 23.886 12.0495 23.886L14.7683 23.9286C14.7683 23.9286 15.0657 23.9713 15.0657 24.0991C15.0657 24.0991 15.0232 24.3548 14.6409 24.2695L11.3273 24.2269L10.945 24.2695C10.945 24.2695 10.6901 24.2269 11.0724 23.7582L11.2849 23.5877ZM10.6901 16.8975C10.6901 16.8975 10.4353 17.3236 10.4777 17.4514V24.1843C10.4777 24.1843 10.4353 24.6531 10.8176 24.5252C10.8176 24.5252 14.3435 24.44 14.5984 24.5252C14.5984 24.5252 14.9383 24.5678 14.8108 24.7383C14.8108 24.7383 14.8108 24.8661 14.5984 24.8235C14.5984 24.8235 12.9417 24.994 11.4123 24.9087C11.4123 24.9087 10.3928 24.9514 10.3503 24.8661C10.3503 24.8661 10.1804 24.8235 10.1804 24.2696C10.1804 24.2696 10.1804 23.7156 10.1379 23.6304C10.1379 23.6304 10.1804 23.3321 9.67063 23.2894C9.67063 23.2894 8.94847 23.4173 8.94847 22.9911C8.94847 22.9911 9.03343 22.6928 9.7556 22.7355C9.7556 22.7355 10.2654 22.8207 10.1379 22.3945L10.1804 19.4115C10.1804 19.4115 10.2654 18.9002 9.88304 18.8576H9.45823C9.45823 18.8576 8.86351 18.8575 8.90599 18.5166C8.90599 18.5166 9.1184 18.1757 9.71311 18.2183C9.71311 18.2183 10.1379 18.3036 10.1804 17.7922C10.1804 17.7922 10.1804 16.7695 10.3928 16.7268C10.3503 16.7268 10.86 16.7696 10.6901 16.8975ZM11.03 16.8547C11.03 16.8547 11.1575 16.8547 11.1575 17.1104L11.115 23.204C11.115 23.204 11.1575 23.5876 10.8176 23.8859C10.8176 23.8859 10.6477 24.0989 10.6477 23.758L10.7326 17.5365C10.7326 17.5365 10.7326 17.0677 11.03 16.8547ZM15.7877 24.0137C15.7877 24.0137 16.1276 23.758 16.2975 23.8007C16.2975 23.8007 18.1241 23.9285 18.6764 23.8433C19.2287 23.758 18.8888 23.8007 18.8888 23.8007C18.8888 23.8007 19.3561 23.8006 19.526 23.6302C19.526 23.6302 19.6535 23.5876 19.7384 23.7154L20.0358 24.0563C20.0358 24.0563 20.0358 24.2694 19.696 24.2268C19.696 24.2268 16.4249 24.2268 16.2975 24.2694C16.3399 24.2694 15.7452 24.3546 15.7877 24.0137ZM16.0001 24.5677C16.0001 24.5677 16.255 24.4398 16.4249 24.4825C16.5948 24.5251 18.9313 24.4398 18.9313 24.4398C18.9313 24.4398 19.9508 24.5251 20.1208 24.3546L20.3757 24.2694C20.3757 24.2694 20.4606 24.1416 20.4606 23.9711V23.2467L20.5031 23.0336V17.4513C20.5031 17.4513 20.5881 17.0252 20.3332 16.7695C20.3332 16.7695 20.3332 16.599 20.4181 16.6416C20.5031 16.6843 20.4606 16.6416 20.4606 16.6416C20.4606 16.6416 20.8005 16.5564 20.8854 16.6843C20.8854 16.6843 21.0554 17.153 20.8854 17.4513C20.8854 17.4513 20.843 18.0479 21.1403 18.0479C21.1403 18.0479 21.2678 18.1757 21.4802 18.0905C21.4802 18.0905 21.9899 18.1331 21.9899 18.3036C21.9899 18.3036 21.9899 18.6871 21.6501 18.6019L21.1828 18.6445C21.1828 18.6445 20.8429 18.7297 20.8854 19.0706C20.9279 19.4542 20.8854 22.2241 20.8854 22.2241C20.8854 22.2241 20.8854 22.565 21.3952 22.5224C21.3952 22.5224 22.0324 22.4798 22.0324 22.6929C22.0324 22.6929 22.2023 23.0764 21.735 23.119C21.735 23.119 20.8854 23.0764 20.9704 23.3321C20.9704 23.3321 20.9279 23.886 20.8854 24.0139C20.8854 24.0139 20.9704 24.4826 20.8854 24.5679C20.8854 24.5679 20.8429 24.8235 20.2907 24.7809C20.2907 24.7809 16.8497 24.7809 16.2974 24.8235C16.255 24.9088 15.9151 24.866 16.0001 24.5677ZM15.4053 24.1843C15.4053 24.1843 15.7452 24.2269 15.7452 24.5679C15.7452 24.9088 15.7452 25.0792 15.5753 25.1218C15.3629 25.1644 15.1505 25.0792 15.108 24.8235C15.023 24.5678 15.108 24.2696 15.4053 24.1843Z" fill="white"/>
<path d="M9.07519 6.92423L8.90527 7.30776C8.90527 7.30776 8.48046 9.26799 8.22559 9.65156C8.22559 9.65156 8.18311 10.0777 7.84326 9.73678C7.84326 9.73678 7.03613 7.26514 6.99365 7.17991L6.73876 7.00946C6.73876 7.00946 6.56884 6.79639 6.8662 6.75377H7.63085C7.63085 6.75377 7.88573 6.96685 7.54589 7.17992C7.54589 7.17992 7.58837 7.52083 8.01316 8.75661C8.01316 8.75661 8.1406 9.22535 8.26805 8.88446L8.69286 7.4356L8.56542 7.00946C8.56542 7.00946 8.43798 6.79639 8.6079 6.79639C8.6079 6.79639 9.03273 6.75378 9.07519 6.92423ZM10.2222 7.26514V9.39587L10.1797 9.56632C10.1797 9.56632 9.96726 9.82201 10.1372 9.86462C10.1372 9.86462 9.96727 9.99247 11.4116 9.99247C11.4116 9.99247 11.9638 10.0777 11.8364 9.35327C11.8364 9.35327 11.7939 9.09758 11.5815 9.48111C11.5815 9.48111 11.539 9.82203 10.7744 9.69418C10.7744 9.69418 10.6045 9.56634 10.6045 9.39588V8.501C10.6045 8.501 10.6045 8.28793 10.9443 8.28793C10.9443 8.28793 11.3267 8.54361 11.3691 8.41576C11.3691 8.41576 11.4966 8.07485 11.3691 7.90441C11.3691 7.90441 11.1992 7.90441 11.1567 7.94703C11.1567 7.94703 11.0293 8.20271 10.6895 8.03225C10.6895 8.03225 10.5195 7.69134 10.647 7.43567C10.647 7.43567 10.6045 6.92432 10.9443 6.96691C10.9443 6.96691 11.3692 7.05214 11.3692 7.17998C11.3692 7.17998 11.4541 7.43567 11.5816 7.13737L11.4966 6.83907C11.4966 6.83907 11.4541 6.71123 11.3267 6.75384C11.3267 6.75384 10.647 6.83907 10.562 6.75384L10.0098 6.79645C10.0098 6.79645 9.92484 7.00953 10.1797 7.09476C10.1797 7.13737 10.2222 7.17992 10.2222 7.26514ZM22.4141 6.92429C22.3717 6.75384 22.754 6.75384 22.754 6.75384L22.9664 6.79645C23.0938 6.79645 23.2638 6.83907 23.2638 6.83907C23.3912 7.05214 23.1788 7.17998 23.1788 7.17998L23.0938 7.43567V9.56639C23.1363 9.65162 23.3063 9.8647 23.3063 9.8647C23.3063 10.0352 23.0938 9.99254 23.0938 9.99254H22.4991C22.3292 9.99254 22.3717 9.77946 22.3717 9.77946C22.5841 9.69424 22.6266 9.3107 22.6266 9.3107V7.30786L22.4141 6.92429ZM19.6953 8.79929L19.6529 9.43849L19.8228 9.73679C19.9502 9.90724 19.7378 10.0351 19.7378 10.0351L19.1006 9.94986C18.9732 9.90725 19.1006 9.69418 19.1006 9.69418C19.2705 9.60895 19.2705 9.35326 19.2705 9.35326V7.30781C19.2705 7.22258 19.1006 7.0095 19.1006 7.0095C18.9732 7.0095 19.0157 6.79643 19.0157 6.79643C19.0581 6.7112 19.398 6.75382 19.398 6.75382H20.2476C21.0547 7.0095 20.9273 7.60609 20.9273 7.60609C20.9698 8.20267 20.375 8.41574 20.375 8.41574L20.3326 8.75666L20.9273 9.69416C21.0122 9.77938 21.0122 9.86461 21.0122 9.86461C20.9273 10.0777 20.5874 9.86461 20.5874 9.86461L19.8653 8.71404C19.7803 8.62881 19.6953 8.79929 19.6953 8.79929ZM19.6953 7.17995V8.2453C20.0777 8.5436 20.2901 8.11745 20.2901 8.11745C20.7998 7.64872 20.2901 7.17996 20.2051 7.05211C20.1201 6.92427 19.7378 7.05211 19.7378 7.05211L19.6953 7.17995ZM13.4933 19.1118C13.4933 19.1118 13.5357 20.6033 13.4933 20.8163V21.1573C13.4933 21.1573 13.5782 21.3703 13.7057 21.4556C13.7057 21.4556 13.7906 21.7539 13.5782 21.7113C13.5782 21.7113 13.0685 21.6686 12.941 21.7113C12.941 21.7113 12.6437 21.7113 12.941 21.3703C12.941 21.3703 13.026 21.2425 13.026 20.859C13.026 20.859 13.026 19.1544 13.0685 19.0692C13.0685 19.0692 13.111 18.8561 12.9835 18.7709H12.7286L12.4313 19.0692C12.4313 19.0692 12.3463 19.3675 12.2189 19.0692V18.8988L12.3888 18.43H12.5162C12.5162 18.43 12.6861 18.5578 12.8561 18.6005H13.7906L14.1305 18.43C14.1305 18.43 14.2579 18.43 14.2154 18.6431C14.2154 18.6431 14.2579 19.1118 14.003 19.1544C14.003 19.1544 13.8331 19.1118 13.7481 18.8561C13.7481 18.8135 13.4933 18.6431 13.4933 19.1118ZM17.9111 18.5578C17.9111 18.5578 17.1465 18.4726 17.1465 19.3249C17.1465 19.3249 17.0615 19.8789 17.9111 20.2624C17.9111 20.2624 18.5483 20.5607 18.5058 20.9442C18.5058 20.9442 18.4209 21.626 17.7412 21.2851C17.7412 21.2851 17.4013 21.1147 17.4438 20.9442C17.4438 20.9442 17.3589 20.7311 17.2314 20.7737C17.2314 20.7737 17.104 20.8164 17.1465 21.4982C17.1465 21.4982 17.1465 21.7539 17.4438 21.4982L17.6137 21.5408C17.6137 21.5408 18.166 21.9669 18.6333 21.4556C18.6333 21.4556 19.143 20.9868 18.7607 20.4328C18.7607 20.4328 18.5058 20.0067 18.0386 19.8362C18.0386 19.8362 17.6137 19.6232 17.4863 19.2823C17.4863 19.2823 17.6138 18.6857 18.166 18.984C18.166 18.984 18.3784 19.2397 18.5058 19.2823C18.5058 19.2823 18.6758 19.2823 18.6333 18.8987L18.5908 18.6004C18.5908 18.6004 18.5483 18.3874 18.251 18.6004C18.251 18.5578 17.9961 18.6857 17.9111 18.5578ZM15.4897 18.1317C15.6171 18.2169 15.6596 18.43 15.6596 18.43C16.0844 19.4953 16.4242 21.0721 16.4242 21.0721C16.5092 21.2852 16.7216 21.413 16.7216 21.413C17.0615 21.5408 16.7216 21.6261 16.7216 21.6261C16.5942 21.6687 16.1269 21.6261 16.1269 21.6261C15.872 21.5835 15.9994 21.4982 15.9994 21.4982C16.0844 21.413 15.9994 20.9869 15.9994 20.9869C15.9994 20.8164 15.787 20.5607 15.787 20.5607C15.7021 20.5181 15.5746 20.6886 15.5746 20.6886C15.5746 20.6886 15.3622 20.7738 15.3197 20.6886C15.2773 20.6034 15.1498 20.5181 15.1498 20.5181C14.8949 20.5181 14.81 21.1147 14.81 21.1147C14.9374 21.6261 14.81 21.5409 14.81 21.5409C14.6825 21.7113 14.3002 21.5835 14.3002 21.5835C14.1303 21.5409 14.2577 21.413 14.2577 21.413C14.4701 21.3704 14.5551 21.1147 14.5551 21.1147C14.6401 20.9869 15.3197 18.3448 15.3197 18.3448C15.2773 18.3022 15.3197 18.0465 15.4897 18.1317ZM15.1498 19.4953C15.1498 19.5805 14.9799 20.1771 14.9799 20.1771L15.1073 20.3902H15.5321C15.6171 20.3902 15.6596 20.305 15.6596 20.1771C15.6596 20.0919 15.4472 19.4527 15.4472 19.4527L15.3622 19.3249L15.1498 19.4953Z" fill="black"/>
</svg>
