<svg width="200" height="55" viewBox="0 0 200 55" fill="none" xmlns="http://www.w3.org/2000/svg">
<path d="M73.7615 40.4061C72.2717 40.4061 70.8857 40.1577 69.6034 39.661C68.3399 39.1452 67.2367 38.4289 66.2939 37.5119C65.3698 36.5759 64.6438 35.4966 64.1158 34.274C63.6066 33.0322 63.3521 31.6759 63.3521 30.205C63.3521 28.734 63.6066 27.3873 64.1158 26.1647C64.6438 24.923 65.3698 23.8436 66.2939 22.9267C67.2367 21.9906 68.3399 21.2743 69.6034 20.7776C70.8668 20.2618 72.2529 20.0039 73.7615 20.0039C75.2513 20.0039 76.6279 20.2618 77.8913 20.7776C79.1548 21.2743 80.2486 21.9811 81.1726 22.898C82.1155 23.815 82.8415 24.8943 83.3507 26.136C83.8787 27.3777 84.1427 28.734 84.1427 30.205C84.1427 31.6759 83.8787 33.0322 83.3507 34.274C82.8415 35.5157 82.1155 36.595 81.1726 37.5119C80.2486 38.4289 79.1548 39.1452 77.8913 39.661C76.6279 40.1577 75.2513 40.4061 73.7615 40.4061ZM73.7615 38.5148C74.9495 38.5148 76.0433 38.3143 77.0427 37.9131C78.0611 37.4928 78.9379 36.9102 79.6734 36.1652C80.4277 35.401 81.0123 34.5223 81.4272 33.5289C81.842 32.5165 82.0495 31.4085 82.0495 30.205C82.0495 29.0015 81.842 27.9031 81.4272 26.9097C81.0123 25.8972 80.4277 25.0185 79.6734 24.2735C78.9379 23.5093 78.0611 22.9267 77.0427 22.5255C76.0433 22.1053 74.9495 21.8951 73.7615 21.8951C72.5735 21.8951 71.4703 22.1053 70.452 22.5255C69.4337 22.9267 68.5474 23.5093 67.793 24.2735C67.0576 25.0185 66.473 25.8972 66.0393 26.9097C65.6244 27.9031 65.417 29.0015 65.417 30.205C65.417 31.3894 65.6244 32.4878 66.0393 33.5003C66.473 34.5127 67.0576 35.401 67.793 36.1652C68.5474 36.9102 69.4337 37.4928 70.452 37.9131C71.4703 38.3143 72.5735 38.5148 73.7615 38.5148Z" fill="#006437"/>
<path d="M88.8345 40.2341V20.1758H90.56L99.6117 35.8213H98.7065L107.673 20.1758H109.399V40.2341H107.39V23.3565H107.871L99.6117 37.6839H98.6216L90.3054 23.3565H90.8428V40.2341H88.8345Z" fill="#006437"/>
<path d="M114.973 40.2341V20.1758H124.647C127.137 20.1758 129.004 20.6534 130.248 21.6086C131.512 22.5637 132.143 23.8245 132.143 25.391C132.143 26.4417 131.889 27.3586 131.38 28.1418C130.871 28.906 130.173 29.4982 129.286 29.9184C128.4 30.3387 127.382 30.5488 126.232 30.5488L126.769 29.374C128.014 29.374 129.117 29.5841 130.079 30.0044C131.04 30.4056 131.785 31.0073 132.313 31.8096C132.86 32.612 133.133 33.5958 133.133 34.7611C133.133 36.4804 132.464 37.8271 131.125 38.8014C129.786 39.7566 127.816 40.2341 125.213 40.2341H114.973ZM119.528 36.7383H124.874C126.062 36.7383 126.958 36.5472 127.561 36.1652C128.183 35.764 128.494 35.1336 128.494 34.274C128.494 33.4334 128.183 32.8126 127.561 32.4114C126.958 31.9911 126.062 31.781 124.874 31.781H119.188V28.3997H124.082C125.194 28.3997 126.043 28.2087 126.628 27.8266C127.231 27.4255 127.533 26.8237 127.533 26.0214C127.533 25.2382 127.231 24.6555 126.628 24.2735C126.043 23.8723 125.194 23.6717 124.082 23.6717H119.528V36.7383Z" fill="#006437"/>
<path d="M134 40.2341L142.826 20.1758H147.352L156.205 40.2341H151.397L144.155 22.5255H145.966L138.696 40.2341H134ZM138.413 35.9359L139.629 32.4114H149.813L151.057 35.9359H138.413Z" fill="#006437"/>
<path d="M158.26 40.2341V20.1758H162.05L173.732 34.6178H171.894V20.1758H176.42V40.2341H172.658L160.947 25.7922H162.786V40.2341H158.26Z" fill="#006437"/>
<path d="M185.206 35.6494L184.951 30.2909L194.427 20.1758H199.519L190.976 29.4886L188.431 32.2395L185.206 35.6494ZM181.104 40.2341V20.1758H185.659V40.2341H181.104ZM194.654 40.2341L187.61 31.4944L190.609 28.1992L200 40.2341H194.654Z" fill="#006437"/>
<path d="M40.8561 36.1799C41.4096 35.2131 41.0797 33.9951 40.1321 33.441C39.1844 32.8869 37.9754 33.2122 37.4285 34.1723C36.8816 35.1323 37.2049 36.3594 38.1526 36.9134C38.467 37.0951 38.808 37.1826 39.1445 37.1826C39.8243 37.1826 40.4863 36.8259 40.8561 36.1799ZM34.0209 30.2176C34.8601 28.6765 38.0906 29.1857 37.0455 31.3908C38.3209 30.6662 39.9284 30.6214 41.2856 31.4132C43.3338 32.6133 44.0357 35.2714 42.8533 37.3486C41.6709 39.419 39.0471 40.1346 36.999 38.9367C35.6417 38.1427 34.8756 36.7115 34.8557 35.2333C33.4939 37.2476 31.4436 34.6703 32.3403 33.1651C31.499 32.528 29.8737 31.4827 28.3592 30.5473C28.2906 29.4258 28.2419 28.3333 28.2198 27.1961C30.0287 28.2301 32.7101 29.6411 34.0209 30.2176ZM12.6253 36.9134C13.5729 36.3594 13.8962 35.1323 13.3515 34.1723C12.8046 33.2122 11.5935 32.8869 10.648 33.441C9.69813 33.9951 9.37043 35.2131 9.92176 36.1799C10.2893 36.8259 10.9514 37.1826 11.6333 37.1826C11.9699 37.1826 12.3109 37.0951 12.6253 36.9134ZM22.4164 30.5473C20.9063 31.4827 19.2789 32.528 18.4353 33.1651C19.3342 34.6703 17.2839 37.2476 15.9222 35.2333C15.9023 36.7115 15.1362 38.1427 13.7789 38.9367C11.7307 40.1346 9.10915 39.419 7.92235 37.3486C6.74219 35.2714 7.44187 32.6133 9.49221 31.4132C10.8495 30.6214 12.4548 30.6662 13.7324 31.3908C12.6873 29.1857 15.9178 28.6765 16.7569 30.2176C18.0677 29.6411 20.7513 28.2301 22.5581 27.1961C22.5337 28.3333 22.4872 29.4258 22.4164 30.5473ZM27.3673 11.0161C27.3673 9.91027 26.4905 9.01077 25.39 9.01077C24.2852 9.01077 23.4106 9.91027 23.4106 11.0161C23.4106 12.1243 24.2962 13.0238 25.39 13.0238C26.4838 13.0238 27.3673 12.1243 27.3673 11.0161ZM29.6745 11.0161C29.6745 12.6021 28.8353 13.9928 27.5799 14.751C29.9845 14.9349 28.8065 18.0238 27.0684 17.9901C26.8846 19.6097 26.7894 23.3221 26.7894 25.3656C26.7894 32.943 27.8212 42.214 30.3919 44.7218C32.2296 44.8677 34.4195 44.6097 36.6934 43.9906C39.149 43.3266 41.2148 42.3284 42.7736 41.1709C44.6335 41.4244 46.2521 41.9201 47.4831 42.5864C44.6822 45.0426 41.5425 47.3643 38.0817 49.3854C34.0076 51.7699 29.5217 53.7192 25.39 55C21.3004 53.7192 16.7702 51.7699 12.6961 49.3854C9.23757 47.3643 6.09786 45.0426 3.2925 42.5864C4.52801 41.9201 6.14436 41.4244 8.00428 41.1709C9.56527 42.3306 11.6311 43.3288 14.0844 43.9928C16.3584 44.6097 18.546 44.8677 20.386 44.7241C22.9566 42.214 23.9885 32.943 23.9885 25.3656C23.9885 23.3221 23.8932 19.6119 23.7095 17.9901C21.9736 18.0238 20.7934 14.9349 23.2002 14.751C21.9448 13.9928 21.1034 12.6021 21.1034 11.0161C21.1034 8.61821 23.0231 6.67564 25.39 6.6734C27.7548 6.67564 29.6745 8.61821 29.6745 11.0161ZM38.0884 4.84971C42.2776 7.29924 46.0129 10.1211 49.2301 13.183C50.2376 17.5393 50.7734 22.214 50.7778 27.1175C50.7801 31.1642 50.366 35.0852 49.6685 38.773C48.4839 38.0238 47.2484 36.8484 46.1015 35.3477C46.3118 33.3961 46.1325 31.0879 45.4749 28.6003C44.866 26.2988 43.9914 24.2485 42.9507 22.7052C40.1321 21.8865 33.9323 24.2194 28.2198 27.1893C28.2043 26.5657 28.1998 25.978 28.1998 25.3589C28.1998 24.8542 28.2065 24.2441 28.2175 23.5891C33.0334 20.2826 37.3068 16.5433 37.9489 13.9278C37.1473 12.2409 35.8365 10.4509 34.1715 8.76402C32.3736 6.94482 30.4893 5.63033 28.7179 4.84074C28.005 3.08434 27.6219 1.41543 27.5754 -1.60863e-06C31.0738 1.23374 34.6298 2.82638 38.0884 4.84971ZM22.0599 4.84074C20.2886 5.63033 18.4043 6.94482 16.6064 8.76402C14.9435 10.4509 13.6283 12.2409 12.829 13.9278C13.4711 16.5433 17.7445 20.2826 22.5603 23.5891C22.5714 24.2441 22.578 24.8542 22.578 25.3589C22.578 25.978 22.5714 26.5657 22.5581 27.1893C16.8455 24.2194 10.6436 21.8865 7.82935 22.7052C6.78647 24.2485 5.91188 26.2988 5.30298 28.6003C4.64536 31.0879 4.4638 33.3961 4.67636 35.3477C3.52941 36.8484 2.2939 38.0238 1.10931 38.773C0.411845 35.0852 -0.00220535 31.1642 8.8357e-06 27.1175C0.0044372 22.214 0.540267 17.5393 1.54993 13.183C4.76493 10.1211 8.50025 7.29924 12.6895 4.84971C16.1503 2.82638 19.704 1.23374 23.2046 -1.60863e-06C23.1559 1.41543 22.7707 3.08434 22.0599 4.84074Z" fill="#006437"/>
</svg>
