<svg width="32" height="32" viewBox="0 0 32 32" fill="none" xmlns="http://www.w3.org/2000/svg">
<g clip-path="url(#clip0_585_25880)">
<path d="M13.9964 0.607106C15.3971 -0.202369 17.1234 -0.202369 18.5241 0.607106L28.2598 6.23343C29.6588 7.0419 30.5205 8.53504 30.5205 10.1508V21.4918C30.5205 23.1075 29.6588 24.6007 28.2598 25.4091L18.5241 31.0355C17.1234 31.8449 15.3971 31.8449 13.9964 31.0355L4.26062 25.4091C2.86165 24.6007 2 23.1075 2 21.4918V10.1508C2 8.53504 2.86165 7.04189 4.26062 6.23343L13.9964 0.607106Z" fill="#05060F"/>
<path fill-rule="evenodd" clip-rule="evenodd" d="M8.46484 11.8377C8.46484 11.6512 8.66676 11.5345 8.82835 11.6278L14.5243 14.9139C14.6744 15.0005 14.7668 15.1605 14.7668 15.3338V23.3599C14.7668 23.5465 14.5649 23.6631 14.4033 23.5699L8.70736 20.2838C8.55729 20.1972 8.46484 20.0371 8.46484 19.8639V17.443C8.46484 17.3502 8.56487 17.2918 8.64566 17.3375L12.0006 19.2337C12.0814 19.2794 12.1814 19.221 12.1814 19.1282V16.6159C12.1814 16.4994 12.1187 16.3919 12.0173 16.3345L8.71107 14.4658C8.55892 14.3798 8.46484 14.2186 8.46484 14.0438V11.8377ZM23.6947 11.6278C23.8563 11.5345 24.0582 11.6512 24.0582 11.8377V14.0438C24.0582 14.2186 23.9641 14.3798 23.812 14.4658L20.5058 16.3345C20.4044 16.3919 20.3417 16.4994 20.3417 16.6159V19.1282C20.3417 19.221 20.4417 19.2794 20.5225 19.2337L23.8774 17.3375C23.9582 17.2918 24.0582 17.3502 24.0582 17.443V19.8639C24.0582 20.0371 23.9658 20.1972 23.8157 20.2838L18.1197 23.5699C17.9582 23.6631 17.7562 23.5465 17.7562 23.3599V15.3338C17.7562 15.1605 17.8487 15.0005 17.9988 14.9139L23.6947 11.6278ZM15.7818 7.20706C16.0792 7.03775 16.4439 7.03775 16.7412 7.20707L21.4286 9.87579C21.5913 9.96843 21.592 10.2027 21.4299 10.2963L19.087 11.6493C18.9883 11.7063 18.8668 11.7071 18.7674 11.6513L16.4196 10.3351C16.3214 10.2801 16.2017 10.2801 16.1035 10.3351L13.7557 11.6513C13.6563 11.7071 13.5348 11.7063 13.4361 11.6493L11.0932 10.2963C10.931 10.2027 10.9317 9.96843 11.0944 9.87579L15.7818 7.20706Z" fill="white"/>
</g>
<defs>
<clipPath id="clip0_585_25880">
<rect width="32" height="32" fill="white"/>
</clipPath>
</defs>
</svg>
